<!-- Generated by IcoMoon.io -->
<svg version="1.1" xmlns="http://www.w3.org/2000/svg" width="32" height="32" viewBox="0 0 32 32">
<title>company</title>
<path d="M4.953 30.587c0.012 0 0.023 0.003 0.034 0.007s0.020 0.010 0.028 0.018l0.161 0.154c-0.125 0.124-0.279 0.224-0.452 0.291-0.202 0.074-0.421 0.109-0.64 0.105-0.206 0.004-0.411-0.029-0.602-0.098-0.172-0.063-0.327-0.156-0.454-0.276-0.129-0.124-0.229-0.268-0.293-0.426-0.070-0.175-0.105-0.36-0.102-0.546-0.003-0.187 0.035-0.373 0.11-0.548 0.070-0.158 0.176-0.303 0.311-0.426 0.137-0.12 0.301-0.215 0.482-0.277 0.198-0.067 0.408-0.1 0.62-0.098 0.197-0.004 0.393 0.026 0.576 0.089 0.159 0.060 0.305 0.143 0.432 0.246l-0.135 0.164c-0.009 0.012-0.021 0.022-0.034 0.030-0.016 0.009-0.035 0.014-0.054 0.012-0.021-0.001-0.041-0.007-0.058-0.017l-0.072-0.044-0.1-0.056c-0.043-0.021-0.088-0.039-0.135-0.054-0.060-0.018-0.121-0.033-0.183-0.044-0.079-0.013-0.159-0.018-0.239-0.017-0.153-0.002-0.304 0.023-0.446 0.073-0.132 0.046-0.251 0.117-0.349 0.206-0.1 0.095-0.177 0.207-0.227 0.328-0.057 0.139-0.084 0.285-0.082 0.433-0.002 0.15 0.026 0.298 0.082 0.44 0.049 0.12 0.125 0.231 0.223 0.326 0.092 0.088 0.206 0.158 0.333 0.202 0.131 0.047 0.272 0.071 0.414 0.070 0.082 0.001 0.164-0.003 0.245-0.014 0.132-0.014 0.259-0.054 0.371-0.117 0.056-0.032 0.109-0.068 0.159-0.108 0.021-0.017 0.048-0.027 0.076-0.028z"></path>
<path d="M9.59 29.815c0.003 0.185-0.034 0.369-0.108 0.543-0.065 0.157-0.168 0.301-0.302 0.421s-0.296 0.215-0.475 0.276c-0.393 0.13-0.827 0.13-1.221 0-0.178-0.063-0.338-0.157-0.472-0.277-0.134-0.122-0.238-0.267-0.305-0.425-0.145-0.351-0.145-0.735 0-1.087 0.069-0.158 0.172-0.304 0.305-0.427 0.135-0.116 0.295-0.207 0.472-0.267 0.393-0.133 0.828-0.133 1.221 0 0.178 0.063 0.34 0.157 0.474 0.277 0.132 0.121 0.235 0.264 0.303 0.42 0.074 0.175 0.111 0.36 0.108 0.546zM9.168 29.815c0.003-0.148-0.023-0.295-0.076-0.436-0.045-0.12-0.118-0.231-0.215-0.326-0.094-0.090-0.21-0.16-0.339-0.206-0.286-0.095-0.602-0.095-0.887 0-0.129 0.046-0.245 0.116-0.339 0.206-0.098 0.094-0.172 0.205-0.217 0.326-0.102 0.284-0.102 0.588 0 0.872 0.045 0.121 0.119 0.232 0.217 0.326 0.094 0.089 0.21 0.159 0.339 0.204 0.286 0.093 0.601 0.093 0.887 0 0.129-0.045 0.245-0.115 0.339-0.204 0.096-0.095 0.169-0.206 0.215-0.326 0.054-0.141 0.080-0.288 0.076-0.436z"></path>
<path d="M12.754 30.273l0.042 0.098c0.016-0.035 0.030-0.066 0.046-0.098 0.015-0.033 0.033-0.065 0.052-0.096l1.026-1.62c0.020-0.028 0.038-0.045 0.058-0.051 0.027-0.007 0.056-0.010 0.084-0.009h0.303v2.635h-0.359v-1.938c0-0.024 0-0.052 0-0.082-0.002-0.030-0.002-0.060 0-0.091l-1.032 1.643c-0.013 0.025-0.034 0.045-0.060 0.060s-0.057 0.022-0.088 0.022h-0.058c-0.031 0-0.062-0.007-0.088-0.022s-0.047-0.035-0.060-0.060l-1.062-1.653c0 0.031 0 0.063 0 0.094s0 0.059 0 0.084v1.938h-0.347v-2.63h0.303c0.028-0.001 0.057 0.001 0.084 0.009 0.025 0.011 0.045 0.029 0.056 0.051l1.048 1.622c0.021 0.030 0.038 0.062 0.052 0.094z"></path>
<path d="M16.614 30.142v0.987h-0.401v-2.632h0.895c0.169-0.003 0.338 0.017 0.5 0.058 0.13 0.032 0.25 0.088 0.353 0.164 0.089 0.071 0.158 0.16 0.201 0.258 0.047 0.107 0.071 0.222 0.068 0.337 0.002 0.115-0.024 0.23-0.074 0.337-0.048 0.101-0.122 0.191-0.217 0.263-0.103 0.079-0.224 0.139-0.355 0.174-0.156 0.043-0.32 0.064-0.484 0.061l-0.486-0.007zM16.614 29.859h0.486c0.105 0.001 0.211-0.012 0.311-0.040 0.083-0.024 0.159-0.063 0.225-0.113 0.060-0.048 0.107-0.108 0.137-0.174 0.033-0.070 0.049-0.146 0.048-0.221 0.005-0.073-0.009-0.146-0.040-0.214s-0.079-0.13-0.14-0.18c-0.153-0.104-0.346-0.154-0.54-0.141h-0.486v1.085z"></path>
<path d="M22.010 31.132h-0.317c-0.032 0.001-0.063-0.008-0.088-0.024-0.023-0.016-0.041-0.037-0.052-0.061l-0.273-0.637h-1.371l-0.283 0.637c-0.010 0.023-0.028 0.044-0.050 0.059-0.026 0.018-0.058 0.027-0.090 0.026h-0.317l1.204-2.636h0.418l1.221 2.636zM20.023 30.154h1.132l-0.478-1.073c-0.037-0.081-0.067-0.164-0.090-0.248l-0.046 0.138c-0.014 0.042-0.030 0.080-0.044 0.112l-0.474 1.071z"></path>
<path d="M23.745 28.509c0.024 0.011 0.045 0.027 0.060 0.047l1.756 1.987c0-0.031 0-0.063 0-0.092s0-0.059 0-0.087v-1.866h0.359v2.636h-0.201c-0.029 0.001-0.057-0.005-0.082-0.016-0.025-0.013-0.047-0.029-0.064-0.049l-1.754-1.985c0.002 0.030 0.002 0.061 0 0.091 0 0.030 0 0.056 0 0.080v1.879h-0.359v-2.636h0.213c0.025-0.001 0.050 0.003 0.072 0.012z"></path>
<path d="M28.88 30.084v1.047h-0.401v-1.047l-1.11-1.587h0.359c0.031-0.002 0.062 0.007 0.086 0.023 0.022 0.017 0.040 0.037 0.054 0.059l0.695 1.024c0.028 0.044 0.052 0.084 0.072 0.122s0.036 0.075 0.050 0.112l0.052-0.113c0.020-0.041 0.042-0.082 0.068-0.12l0.685-1.031c0.014-0.021 0.032-0.039 0.052-0.056 0.024-0.018 0.055-0.027 0.086-0.026h0.363l-1.112 1.594z"></path>
<path d="M12.555 24.074c0.175 0.019 0.351 0.035 0.53 0.049 2.709-1.053 5-2.776 6.588-4.954s2.402-4.714 2.34-7.292l-2.985-2.594c0.607 2.744 0.323 5.582-0.82 8.194s-3.1 4.897-5.652 6.598z"></path>
<path d="M11.489 23.953l0.080 0.014c2.727-1.695 4.806-4.062 5.969-6.794s1.354-5.705 0.552-8.534l-4.252-3.694c1.72 3.037 2.412 6.435 1.996 9.8s-1.923 6.558-4.345 9.208z"></path>
<path d="M25.909 14.922c-0.722 2.832-2.477 5.387-5.003 7.284-0.738 0.557-1.533 1.053-2.377 1.483 2.057-0.525 3.947-1.454 5.526-2.714s2.803-2.819 3.578-4.555l-1.724-1.496z"></path>
<path d="M25.232 14.505l-2.455-2.133c-0.047 2.432-0.843 4.809-2.305 6.883s-3.537 3.771-6.008 4.913h0.012c0.551-0 1.101-0.029 1.648-0.085 2.31-0.819 4.351-2.123 5.94-3.794s2.678-3.658 3.168-5.784z"></path>
<path d="M11.844 3.387l-2.929-2.548c-2.618 0.879-4.87 2.425-6.461 4.434s-2.446 4.39-2.454 6.828v0c0.010 2.695 1.054 5.31 2.967 7.432s4.585 3.628 7.595 4.281c2.686-2.844 4.259-6.357 4.49-10.031s-0.893-7.315-3.207-10.396z"></path>
<path d="M32 14.113c-0.011-3.197-1.477-6.261-4.079-8.522s-6.128-3.535-9.808-3.544c-1.701-0.002-3.387 0.271-4.973 0.804l17.933 15.581c0.614-1.377 0.928-2.842 0.927-4.319z"></path>
</svg>
