<!-- Generated by IcoMoon.io -->
<svg version="1.1" xmlns="http://www.w3.org/2000/svg" width="32" height="32" viewBox="0 0 32 32">
<title>ya-and-co</title>
<path d="M6.065-0l4.802 4.546-8.913-0.005v22.054h23.296v-8.432l4.796 4.541v-22.703h-23.981zM25.039 17.629l-13.614-12.889h13.614v12.889zM20.812 23.369h-15.172v-14.833h1.072v13.828h14.1v1.004zM9.223 29.531l-0.56 1.154-0.56-1.154h-0.47l0.818 1.539v0.897h0.425v-0.897l0.816-1.539h-0.468zM9.927 31.966l0.197-0.567h0.944l0.199 0.567h0.442l-0.922-2.436h-0.38l-0.92 2.436h0.44zM10.596 30.048l0.353 1.010h-0.706l0.353-1.010zM12.828 31c-0.061 0.094-0.092 0.197-0.092 0.309 0 0.205 0.072 0.372 0.216 0.5 0.145 0.127 0.338 0.191 0.579 0.191s0.448-0.065 0.622-0.196l0.137 0.162h0.472l-0.358-0.423c0.141-0.192 0.211-0.438 0.211-0.738h-0.353c0 0.164-0.034 0.313-0.102 0.447l-0.47-0.555 0.166-0.12c0.117-0.085 0.201-0.169 0.253-0.254 0.051-0.086 0.077-0.18 0.077-0.281 0-0.154-0.057-0.283-0.171-0.386-0.113-0.105-0.258-0.157-0.435-0.157-0.196 0-0.352 0.056-0.468 0.167-0.116 0.11-0.174 0.261-0.174 0.452 0 0.078 0.018 0.159 0.055 0.243 0.038 0.084 0.104 0.185 0.199 0.305-0.181 0.129-0.302 0.241-0.363 0.336zM13.927 31.538c-0.119 0.091-0.248 0.137-0.385 0.137-0.122 0-0.219-0.035-0.291-0.105s-0.109-0.162-0.109-0.274c0-0.13 0.067-0.246 0.201-0.348l0.052-0.037 0.532 0.627zM13.49 30.459c-0.115-0.142-0.172-0.259-0.172-0.353 0-0.081 0.023-0.149 0.070-0.202s0.11-0.080 0.189-0.080c0.074 0 0.134 0.023 0.182 0.069 0.048 0.045 0.072 0.099 0.072 0.162 0 0.096-0.035 0.174-0.104 0.236l-0.052 0.042-0.186 0.127zM17.455 31.783c0.167-0.146 0.263-0.349 0.288-0.609h-0.422c-0.022 0.174-0.075 0.298-0.159 0.373s-0.209 0.112-0.375 0.112c-0.182 0-0.32-0.069-0.415-0.207-0.094-0.138-0.141-0.339-0.141-0.602v-0.216c0.002-0.26 0.052-0.457 0.151-0.59 0.099-0.135 0.241-0.202 0.425-0.202 0.158 0 0.278 0.039 0.36 0.117 0.083 0.077 0.134 0.203 0.154 0.378h0.422c-0.027-0.267-0.122-0.473-0.286-0.619s-0.38-0.219-0.649-0.219c-0.2 0-0.376 0.047-0.529 0.142-0.152 0.095-0.268 0.23-0.35 0.405s-0.122 0.378-0.122 0.607v0.227c0.003 0.224 0.045 0.421 0.125 0.59s0.194 0.301 0.341 0.393c0.148 0.091 0.32 0.137 0.514 0.137 0.278 0 0.5-0.073 0.667-0.217zM19.942 31.441c0.083-0.181 0.124-0.39 0.124-0.629v-0.135c-0.001-0.238-0.044-0.445-0.127-0.624-0.084-0.18-0.202-0.317-0.356-0.411-0.153-0.096-0.328-0.144-0.527-0.144s-0.375 0.049-0.529 0.146c-0.153 0.096-0.272 0.235-0.356 0.416-0.084 0.182-0.125 0.391-0.125 0.629v0.137c0.001 0.233 0.043 0.439 0.127 0.617 0.085 0.178 0.204 0.316 0.358 0.413 0.155 0.096 0.331 0.144 0.529 0.144 0.2 0 0.376-0.048 0.529-0.144 0.154-0.097 0.272-0.235 0.355-0.415zM19.489 30.064c0.103 0.144 0.154 0.351 0.154 0.621v0.127c0 0.274-0.051 0.483-0.152 0.626-0.1 0.143-0.244 0.214-0.432 0.214-0.185 0-0.33-0.073-0.435-0.219-0.104-0.146-0.156-0.353-0.156-0.621v-0.14c0.002-0.262 0.055-0.465 0.157-0.607 0.104-0.144 0.247-0.216 0.43-0.216 0.187 0 0.332 0.072 0.433 0.216z"></path>
</svg>
