<svg aria-hidden="true" style="position: absolute; width: 0; height: 0; overflow: hidden;" version="1.1" xmlns="http://www.w3.org/2000/svg" xmlns:xlink="http://www.w3.org/1999/xlink">
<defs>
<symbol id="ya-and-co" viewBox="0 0 32 32">
<path d="M6.065-0l4.802 4.546-8.913-0.005v22.054h23.296v-8.432l4.796 4.541v-22.703h-23.981zM25.039 17.629l-13.614-12.889h13.614v12.889zM20.812 23.369h-15.172v-14.833h1.072v13.828h14.1v1.004zM9.223 29.531l-0.56 1.154-0.56-1.154h-0.47l0.818 1.539v0.897h0.425v-0.897l0.816-1.539h-0.468zM9.927 31.966l0.197-0.567h0.944l0.199 0.567h0.442l-0.922-2.436h-0.38l-0.92 2.436h0.44zM10.596 30.048l0.353 1.010h-0.706l0.353-1.010zM12.828 31c-0.061 0.094-0.092 0.197-0.092 0.309 0 0.205 0.072 0.372 0.216 0.5 0.145 0.127 0.338 0.191 0.579 0.191s0.448-0.065 0.622-0.196l0.137 0.162h0.472l-0.358-0.423c0.141-0.192 0.211-0.438 0.211-0.738h-0.353c0 0.164-0.034 0.313-0.102 0.447l-0.47-0.555 0.166-0.12c0.117-0.085 0.201-0.169 0.253-0.254 0.051-0.086 0.077-0.18 0.077-0.281 0-0.154-0.057-0.283-0.171-0.386-0.113-0.105-0.258-0.157-0.435-0.157-0.196 0-0.352 0.056-0.468 0.167-0.116 0.11-0.174 0.261-0.174 0.452 0 0.078 0.018 0.159 0.055 0.243 0.038 0.084 0.104 0.185 0.199 0.305-0.181 0.129-0.302 0.241-0.363 0.336zM13.927 31.538c-0.119 0.091-0.248 0.137-0.385 0.137-0.122 0-0.219-0.035-0.291-0.105s-0.109-0.162-0.109-0.274c0-0.13 0.067-0.246 0.201-0.348l0.052-0.037 0.532 0.627zM13.49 30.459c-0.115-0.142-0.172-0.259-0.172-0.353 0-0.081 0.023-0.149 0.070-0.202s0.11-0.080 0.189-0.080c0.074 0 0.134 0.023 0.182 0.069 0.048 0.045 0.072 0.099 0.072 0.162 0 0.096-0.035 0.174-0.104 0.236l-0.052 0.042-0.186 0.127zM17.455 31.783c0.167-0.146 0.263-0.349 0.288-0.609h-0.422c-0.022 0.174-0.075 0.298-0.159 0.373s-0.209 0.112-0.375 0.112c-0.182 0-0.32-0.069-0.415-0.207-0.094-0.138-0.141-0.339-0.141-0.602v-0.216c0.002-0.26 0.052-0.457 0.151-0.59 0.099-0.135 0.241-0.202 0.425-0.202 0.158 0 0.278 0.039 0.36 0.117 0.083 0.077 0.134 0.203 0.154 0.378h0.422c-0.027-0.267-0.122-0.473-0.286-0.619s-0.38-0.219-0.649-0.219c-0.2 0-0.376 0.047-0.529 0.142-0.152 0.095-0.268 0.23-0.35 0.405s-0.122 0.378-0.122 0.607v0.227c0.003 0.224 0.045 0.421 0.125 0.59s0.194 0.301 0.341 0.393c0.148 0.091 0.32 0.137 0.514 0.137 0.278 0 0.5-0.073 0.667-0.217zM19.942 31.441c0.083-0.181 0.124-0.39 0.124-0.629v-0.135c-0.001-0.238-0.044-0.445-0.127-0.624-0.084-0.18-0.202-0.317-0.356-0.411-0.153-0.096-0.328-0.144-0.527-0.144s-0.375 0.049-0.529 0.146c-0.153 0.096-0.272 0.235-0.356 0.416-0.084 0.182-0.125 0.391-0.125 0.629v0.137c0.001 0.233 0.043 0.439 0.127 0.617 0.085 0.178 0.204 0.316 0.358 0.413 0.155 0.096 0.331 0.144 0.529 0.144 0.2 0 0.376-0.048 0.529-0.144 0.154-0.097 0.272-0.235 0.355-0.415zM19.489 30.064c0.103 0.144 0.154 0.351 0.154 0.621v0.127c0 0.274-0.051 0.483-0.152 0.626-0.1 0.143-0.244 0.214-0.432 0.214-0.185 0-0.33-0.073-0.435-0.219-0.104-0.146-0.156-0.353-0.156-0.621v-0.14c0.002-0.262 0.055-0.465 0.157-0.607 0.104-0.144 0.247-0.216 0.43-0.216 0.187 0 0.332 0.072 0.433 0.216z"></path>
</symbol>
<symbol id="company-tag-line-here" viewBox="0 0 32 32">
<path d="M14.224 1.806h-0.084c-0.129-0.008-0.258-0.011-0.388-0.014v0h-0.28c-0.244 0-0.494 0.006-0.741 0.019-0.019-0.001-0.037-0.001-0.056 0-2.243 0.127-4.44 0.688-6.472 1.651l-0.266 0.128v13.626l0.623-0.211c0.546-0.188 1.129-0.357 1.731-0.513 1.629-0.418 3.301-0.64 4.982-0.662v1.79c-0.223 0.002-0.439 0.008-0.655 0.019h-0.051c-1.294 0.071-2.577 0.268-3.833 0.588-1.59 0.398-3.124 0.996-4.566 1.779v-17.475c1.497-0.873 3.11-1.529 4.79-1.948 1.475-0.381 2.992-0.576 4.515-0.582h0.263c0.314 0.008 0.621 0.022 0.909 0.044 0.759 0.053 1.511 0.173 2.25 0.358v1.762c-0.717-0.167-1.445-0.277-2.179-0.329-0.015-0.001-0.030-0.003-0.045-0.004-0.152-0.013-0.304-0.026-0.446-0.026zM17.325 3.607c0.391 0.030 0.796 0.044 1.205 0.044 1.601-0.006 3.195-0.21 4.747-0.609 1.59-0.4 3.123-0.998 4.564-1.781v17.164c-1.498 0.873-3.111 1.529-4.792 1.948-1.475 0.379-2.992 0.574-4.515 0.581-1.154 0.009-2.304-0.126-3.425-0.404v-17.275c0.265 0.061 0.537 0.117 0.814 0.164 0.455 0.077 0.934 0.133 1.401 0.167zM26.060 3.74l-0.623 0.21c-0.573 0.192-1.151 0.365-1.731 0.518-1.691 0.434-3.428 0.657-5.173 0.663-0.406 0-0.78-0.011-1.141-0.034l-0.497-0.033v14.017l0.427 0.038c0.395 0.034 0.803 0.052 1.214 0.052 1.375-0.006 2.743-0.183 4.074-0.527 1.096-0.275 2.163-0.658 3.184-1.144l0.266-0.128v-13.63z"></path>
<path d="M5.377 25.977c-0.090-0.093-0.197-0.166-0.317-0.214s-0.247-0.071-0.376-0.066c-0.137-0.002-0.273 0.024-0.4 0.075-0.117 0.046-0.222 0.116-0.311 0.205s-0.156 0.196-0.201 0.313c-0.049 0.123-0.073 0.254-0.072 0.387v2.335c-0.006 0.165 0.026 0.328 0.092 0.479 0.055 0.12 0.135 0.226 0.234 0.313 0.093 0.079 0.203 0.135 0.321 0.166 0.114 0.032 0.231 0.048 0.349 0.049 0.13 0.001 0.259-0.027 0.377-0.081 0.117-0.051 0.222-0.124 0.311-0.216 0.087-0.091 0.156-0.197 0.204-0.313 0.050-0.118 0.075-0.244 0.075-0.372v-0.261h-0.61v0.208c0.002 0.071-0.010 0.142-0.036 0.208-0.020 0.050-0.050 0.095-0.089 0.131-0.038 0.031-0.081 0.053-0.128 0.067-0.041 0.014-0.084 0.021-0.128 0.022-0.054 0.006-0.11-0.002-0.16-0.024s-0.094-0.057-0.126-0.101c-0.058-0.094-0.086-0.203-0.081-0.313v-2.177c-0.004-0.121 0.022-0.241 0.075-0.349 0.032-0.049 0.077-0.089 0.129-0.114s0.112-0.034 0.17-0.027c0.053-0.002 0.105 0.009 0.152 0.032s0.089 0.057 0.12 0.099c0.068 0.090 0.104 0.2 0.101 0.313v0.202h0.604v-0.238c0.001-0.14-0.024-0.278-0.075-0.408-0.045-0.122-0.114-0.234-0.204-0.329z"></path>
<path d="M9.002 25.951c-0.195-0.164-0.44-0.255-0.694-0.257-0.124 0-0.248 0.023-0.364 0.066-0.119 0.042-0.228 0.107-0.322 0.191-0.101 0.091-0.182 0.202-0.237 0.327-0.061 0.143-0.092 0.297-0.089 0.452v2.239c-0.004 0.158 0.026 0.314 0.089 0.459 0.055 0.12 0.136 0.227 0.237 0.313 0.093 0.087 0.203 0.154 0.322 0.197 0.117 0.043 0.24 0.065 0.364 0.066s0.248-0.023 0.364-0.066c0.121-0.044 0.233-0.111 0.33-0.197 0.097-0.087 0.176-0.194 0.23-0.313 0.063-0.145 0.093-0.301 0.089-0.459v-2.239c0.003-0.155-0.027-0.31-0.089-0.452-0.054-0.123-0.133-0.235-0.23-0.327zM8.717 28.969c0.005 0.060-0.003 0.12-0.024 0.176s-0.054 0.107-0.097 0.148c-0.081 0.068-0.182 0.105-0.287 0.105s-0.207-0.037-0.287-0.105c-0.043-0.041-0.076-0.092-0.097-0.148s-0.029-0.116-0.024-0.176v-2.239c-0.005-0.060 0.003-0.12 0.024-0.176s0.054-0.107 0.097-0.148c0.081-0.068 0.182-0.105 0.287-0.105s0.207 0.037 0.287 0.105c0.043 0.041 0.076 0.092 0.097 0.148s0.029 0.116 0.024 0.176v2.239z"></path>
<path d="M13.764 29.969v-4.239h-0.587l-0.771 2.244h-0.011l-0.777-2.244h-0.581v4.239h0.606v-2.579h0.011l0.593 1.823h0.302l0.598-1.823h0.011v2.579h0.606z"></path>
<path d="M17.205 26.027c-0.093-0.105-0.211-0.184-0.343-0.232-0.142-0.046-0.29-0.068-0.439-0.066h-0.9v4.239h0.604v-1.656h0.311c0.189 0.009 0.376-0.031 0.545-0.116 0.137-0.076 0.252-0.188 0.332-0.324 0.070-0.113 0.117-0.238 0.139-0.369 0.024-0.16 0.035-0.321 0.033-0.482 0.006-0.204-0.014-0.407-0.059-0.606-0.040-0.147-0.117-0.281-0.223-0.39zM16.894 27.32c-0.003 0.077-0.022 0.152-0.056 0.221-0.035 0.065-0.089 0.117-0.156 0.149-0.089 0.040-0.187 0.058-0.285 0.053h-0.276v-1.441h0.311c0.094-0.005 0.187 0.014 0.272 0.053 0.062 0.036 0.112 0.091 0.142 0.157 0.033 0.074 0.051 0.155 0.053 0.236 0 0.089 0 0.183 0 0.282s0.006 0.2 0 0.291h-0.006z"></path>
<path d="M20.066 25.73h-0.495l-0.934 4.239h0.604l0.177-0.911h0.823l0.177 0.911h0.604l-0.957-4.239zM19.509 28.481l0.297-1.537h0.011l0.296 1.537h-0.604z"></path>
<path d="M23.969 28.284h-0.011l-0.912-2.554h-0.581v4.239h0.604v-2.549h0.012l0.923 2.549h0.568v-4.239h-0.604v2.554z"></path>
<path d="M27.66 25.73l-0.486 1.685h-0.012l-0.486-1.685h-0.64l0.83 2.447v1.792h0.604v-1.792l0.83-2.447h-0.64z"></path>
<path d="M3.692 31.166h0.291v0.817h0.198v-0.817h0.29v-0.167h-0.778v0.167z"></path>
<path d="M6.139 30.999l-0.381 0.984h0.21l0.081-0.224h0.392l0.084 0.224h0.215l-0.391-0.984h-0.21zM6.108 31.593l0.134-0.365 0.134 0.365h-0.268z"></path>
<path d="M8.559 31.62h0.227v0.127c-0.066 0.053-0.149 0.082-0.233 0.083-0.040 0.002-0.079-0.005-0.116-0.021s-0.068-0.041-0.093-0.072c-0.052-0.075-0.078-0.165-0.073-0.257 0-0.219 0.095-0.329 0.283-0.329 0.050-0.005 0.099 0.008 0.14 0.037s0.070 0.071 0.082 0.12l0.195-0.038c-0.042-0.192-0.181-0.289-0.417-0.289-0.127-0.003-0.25 0.042-0.344 0.127-0.050 0.049-0.088 0.108-0.112 0.174s-0.034 0.135-0.029 0.205c-0.006 0.135 0.039 0.267 0.126 0.369 0.048 0.050 0.107 0.088 0.171 0.113s0.134 0.035 0.203 0.031c0.154 0.004 0.304-0.052 0.417-0.157v-0.388h-0.427v0.166z"></path>
<path d="M11.029 30.999h-0.199v0.984h0.69v-0.167h-0.49v-0.817z"></path>
<path d="M13.118 30.999h-0.199v0.984h0.199v-0.984z"></path>
<path d="M15.161 31.656l-0.403-0.657h-0.193v0.984h0.185v-0.643l0.395 0.643h0.198v-0.984h-0.182v0.657z"></path>
<path d="M17.007 31.55h0.49v-0.167h-0.49v-0.216h0.528v-0.167h-0.727v0.984h0.747v-0.167h-0.548v-0.266z"></path>
<path d="M21.485 31.387h-0.388v-0.388h-0.198v0.984h0.198v-0.43h0.388v0.43h0.198v-0.984h-0.198v0.388z"></path>
<path d="M23.342 31.55h0.492v-0.167h-0.492v-0.216h0.529v-0.167h-0.727v0.984h0.746v-0.167h-0.548v-0.266z"></path>
<path d="M25.861 31.55c0.171-0.027 0.258-0.117 0.258-0.274 0.005-0.042-0.001-0.084-0.018-0.123s-0.044-0.072-0.078-0.096c-0.089-0.045-0.189-0.065-0.288-0.058h-0.417v0.984h0.198v-0.412h0.039c0.042-0.003 0.084 0.005 0.123 0.022 0.029 0.018 0.053 0.043 0.070 0.072l0.215 0.313h0.237l-0.12-0.192c-0.053-0.095-0.128-0.176-0.218-0.236zM25.661 31.414h-0.146v-0.247h0.156c0.068-0.005 0.136 0.002 0.201 0.023 0.014 0.013 0.026 0.029 0.033 0.046s0.011 0.037 0.010 0.056c-0.001 0.019-0.006 0.038-0.015 0.055s-0.022 0.032-0.037 0.043c-0.065 0.020-0.133 0.028-0.201 0.023z"></path>
<path d="M27.76 31.55h0.49v-0.167h-0.49v-0.216h0.529v-0.167h-0.729v0.984h0.747v-0.167h-0.548v-0.266z"></path>
</symbol>
<symbol id="company" viewBox="0 0 32 32">
<path d="M4.953 30.587c0.012 0 0.023 0.003 0.034 0.007s0.020 0.010 0.028 0.018l0.161 0.154c-0.125 0.124-0.279 0.224-0.452 0.291-0.202 0.074-0.421 0.109-0.64 0.105-0.206 0.004-0.411-0.029-0.602-0.098-0.172-0.063-0.327-0.156-0.454-0.276-0.129-0.124-0.229-0.268-0.293-0.426-0.070-0.175-0.105-0.36-0.102-0.546-0.003-0.187 0.035-0.373 0.11-0.548 0.070-0.158 0.176-0.303 0.311-0.426 0.137-0.12 0.301-0.215 0.482-0.277 0.198-0.067 0.408-0.1 0.62-0.098 0.197-0.004 0.393 0.026 0.576 0.089 0.159 0.060 0.305 0.143 0.432 0.246l-0.135 0.164c-0.009 0.012-0.021 0.022-0.034 0.030-0.016 0.009-0.035 0.014-0.054 0.012-0.021-0.001-0.041-0.007-0.058-0.017l-0.072-0.044-0.1-0.056c-0.043-0.021-0.088-0.039-0.135-0.054-0.060-0.018-0.121-0.033-0.183-0.044-0.079-0.013-0.159-0.018-0.239-0.017-0.153-0.002-0.304 0.023-0.446 0.073-0.132 0.046-0.251 0.117-0.349 0.206-0.1 0.095-0.177 0.207-0.227 0.328-0.057 0.139-0.084 0.285-0.082 0.433-0.002 0.15 0.026 0.298 0.082 0.44 0.049 0.12 0.125 0.231 0.223 0.326 0.092 0.088 0.206 0.158 0.333 0.202 0.131 0.047 0.272 0.071 0.414 0.070 0.082 0.001 0.164-0.003 0.245-0.014 0.132-0.014 0.259-0.054 0.371-0.117 0.056-0.032 0.109-0.068 0.159-0.108 0.021-0.017 0.048-0.027 0.076-0.028z"></path>
<path d="M9.59 29.815c0.003 0.185-0.034 0.369-0.108 0.543-0.065 0.157-0.168 0.301-0.302 0.421s-0.296 0.215-0.475 0.276c-0.393 0.13-0.827 0.13-1.221 0-0.178-0.063-0.338-0.157-0.472-0.277-0.134-0.122-0.238-0.267-0.305-0.425-0.145-0.351-0.145-0.735 0-1.087 0.069-0.158 0.172-0.304 0.305-0.427 0.135-0.116 0.295-0.207 0.472-0.267 0.393-0.133 0.828-0.133 1.221 0 0.178 0.063 0.34 0.157 0.474 0.277 0.132 0.121 0.235 0.264 0.303 0.42 0.074 0.175 0.111 0.36 0.108 0.546zM9.168 29.815c0.003-0.148-0.023-0.295-0.076-0.436-0.045-0.12-0.118-0.231-0.215-0.326-0.094-0.090-0.21-0.16-0.339-0.206-0.286-0.095-0.602-0.095-0.887 0-0.129 0.046-0.245 0.116-0.339 0.206-0.098 0.094-0.172 0.205-0.217 0.326-0.102 0.284-0.102 0.588 0 0.872 0.045 0.121 0.119 0.232 0.217 0.326 0.094 0.089 0.21 0.159 0.339 0.204 0.286 0.093 0.601 0.093 0.887 0 0.129-0.045 0.245-0.115 0.339-0.204 0.096-0.095 0.169-0.206 0.215-0.326 0.054-0.141 0.080-0.288 0.076-0.436z"></path>
<path d="M12.754 30.273l0.042 0.098c0.016-0.035 0.030-0.066 0.046-0.098 0.015-0.033 0.033-0.065 0.052-0.096l1.026-1.62c0.020-0.028 0.038-0.045 0.058-0.051 0.027-0.007 0.056-0.010 0.084-0.009h0.303v2.635h-0.359v-1.938c0-0.024 0-0.052 0-0.082-0.002-0.030-0.002-0.060 0-0.091l-1.032 1.643c-0.013 0.025-0.034 0.045-0.060 0.060s-0.057 0.022-0.088 0.022h-0.058c-0.031 0-0.062-0.007-0.088-0.022s-0.047-0.035-0.060-0.060l-1.062-1.653c0 0.031 0 0.063 0 0.094s0 0.059 0 0.084v1.938h-0.347v-2.63h0.303c0.028-0.001 0.057 0.001 0.084 0.009 0.025 0.011 0.045 0.029 0.056 0.051l1.048 1.622c0.021 0.030 0.038 0.062 0.052 0.094z"></path>
<path d="M16.614 30.142v0.987h-0.401v-2.632h0.895c0.169-0.003 0.338 0.017 0.5 0.058 0.13 0.032 0.25 0.088 0.353 0.164 0.089 0.071 0.158 0.16 0.201 0.258 0.047 0.107 0.071 0.222 0.068 0.337 0.002 0.115-0.024 0.23-0.074 0.337-0.048 0.101-0.122 0.191-0.217 0.263-0.103 0.079-0.224 0.139-0.355 0.174-0.156 0.043-0.32 0.064-0.484 0.061l-0.486-0.007zM16.614 29.859h0.486c0.105 0.001 0.211-0.012 0.311-0.040 0.083-0.024 0.159-0.063 0.225-0.113 0.060-0.048 0.107-0.108 0.137-0.174 0.033-0.070 0.049-0.146 0.048-0.221 0.005-0.073-0.009-0.146-0.040-0.214s-0.079-0.13-0.14-0.18c-0.153-0.104-0.346-0.154-0.54-0.141h-0.486v1.085z"></path>
<path d="M22.010 31.132h-0.317c-0.032 0.001-0.063-0.008-0.088-0.024-0.023-0.016-0.041-0.037-0.052-0.061l-0.273-0.637h-1.371l-0.283 0.637c-0.010 0.023-0.028 0.044-0.050 0.059-0.026 0.018-0.058 0.027-0.090 0.026h-0.317l1.204-2.636h0.418l1.221 2.636zM20.023 30.154h1.132l-0.478-1.073c-0.037-0.081-0.067-0.164-0.090-0.248l-0.046 0.138c-0.014 0.042-0.030 0.080-0.044 0.112l-0.474 1.071z"></path>
<path d="M23.745 28.509c0.024 0.011 0.045 0.027 0.060 0.047l1.756 1.987c0-0.031 0-0.063 0-0.092s0-0.059 0-0.087v-1.866h0.359v2.636h-0.201c-0.029 0.001-0.057-0.005-0.082-0.016-0.025-0.013-0.047-0.029-0.064-0.049l-1.754-1.985c0.002 0.030 0.002 0.061 0 0.091 0 0.030 0 0.056 0 0.080v1.879h-0.359v-2.636h0.213c0.025-0.001 0.050 0.003 0.072 0.012z"></path>
<path d="M28.88 30.084v1.047h-0.401v-1.047l-1.11-1.587h0.359c0.031-0.002 0.062 0.007 0.086 0.023 0.022 0.017 0.040 0.037 0.054 0.059l0.695 1.024c0.028 0.044 0.052 0.084 0.072 0.122s0.036 0.075 0.050 0.112l0.052-0.113c0.020-0.041 0.042-0.082 0.068-0.12l0.685-1.031c0.014-0.021 0.032-0.039 0.052-0.056 0.024-0.018 0.055-0.027 0.086-0.026h0.363l-1.112 1.594z"></path>
<path d="M12.555 24.074c0.175 0.019 0.351 0.035 0.53 0.049 2.709-1.053 5-2.776 6.588-4.954s2.402-4.714 2.34-7.292l-2.985-2.594c0.607 2.744 0.323 5.582-0.82 8.194s-3.1 4.897-5.652 6.598z"></path>
<path d="M11.489 23.953l0.080 0.014c2.727-1.695 4.806-4.062 5.969-6.794s1.354-5.705 0.552-8.534l-4.252-3.694c1.72 3.037 2.412 6.435 1.996 9.8s-1.923 6.558-4.345 9.208z"></path>
<path d="M25.909 14.922c-0.722 2.832-2.477 5.387-5.003 7.284-0.738 0.557-1.533 1.053-2.377 1.483 2.057-0.525 3.947-1.454 5.526-2.714s2.803-2.819 3.578-4.555l-1.724-1.496z"></path>
<path d="M25.232 14.505l-2.455-2.133c-0.047 2.432-0.843 4.809-2.305 6.883s-3.537 3.771-6.008 4.913h0.012c0.551-0 1.101-0.029 1.648-0.085 2.31-0.819 4.351-2.123 5.94-3.794s2.678-3.658 3.168-5.784z"></path>
<path d="M11.844 3.387l-2.929-2.548c-2.618 0.879-4.87 2.425-6.461 4.434s-2.446 4.39-2.454 6.828v0c0.010 2.695 1.054 5.31 2.967 7.432s4.585 3.628 7.595 4.281c2.686-2.844 4.259-6.357 4.49-10.031s-0.893-7.315-3.207-10.396z"></path>
<path d="M32 14.113c-0.011-3.197-1.477-6.261-4.079-8.522s-6.128-3.535-9.808-3.544c-1.701-0.002-3.387 0.271-4.973 0.804l17.933 15.581c0.614-1.377 0.928-2.842 0.927-4.319z"></path>
</symbol>
<symbol id="foster-peters" viewBox="0 0 32 32">
<path d="M6.122 12.317h-0.002c-1.117 0-2.022 0.805-2.022 1.797v0.001c0 0.993 0.905 1.797 2.022 1.797h0.002c1.117 0 2.022-0.805 2.022-1.797v-0.001c0-0.993-0.905-1.797-2.022-1.797z"></path>
<path d="M21.049 11.742c-0.003-1.378-0.62-2.7-1.718-3.674s-2.583-1.524-4.134-1.527v0c-1.552 0.003-3.039 0.552-4.136 1.526s-1.715 2.297-1.719 3.676v7.602c0 0 11.705-1.158 11.707-7.601v-0.001z"></path>
<path d="M0 21.839c0.003 0.96 0.433 1.878 1.196 2.557s1.797 1.061 2.876 1.064c1.079-0.003 2.113-0.385 2.876-1.063s1.193-1.597 1.196-2.556v-5.29c0 0-8.145 0.807-8.145 5.289zM4.072 22.787c-0.211 0-0.417-0.056-0.593-0.16s-0.312-0.252-0.393-0.425-0.102-0.364-0.061-0.548c0.041-0.184 0.142-0.353 0.292-0.485s0.339-0.223 0.546-0.26c0.207-0.037 0.422-0.018 0.616 0.054s0.361 0.193 0.478 0.349c0.117 0.155 0.18 0.339 0.18 0.527 0.001 0.125-0.027 0.248-0.080 0.364s-0.132 0.221-0.231 0.309-0.217 0.159-0.346 0.206-0.269 0.073-0.409 0.073v-0.003z"></path>
<path d="M12.303 22.265h-0.786v0.812h-0.41v-1.987h1.293v0.332h-0.884v0.513h0.786v0.331zM14.271 22.129c0 0.196-0.035 0.367-0.103 0.514s-0.168 0.261-0.297 0.341c-0.128 0.080-0.276 0.12-0.442 0.12-0.165 0-0.312-0.040-0.44-0.119s-0.229-0.192-0.3-0.339c-0.071-0.147-0.107-0.316-0.108-0.508v-0.098c0-0.196 0.035-0.367 0.105-0.516 0.071-0.149 0.171-0.263 0.299-0.342 0.129-0.080 0.276-0.12 0.442-0.12s0.313 0.040 0.44 0.12c0.129 0.079 0.229 0.193 0.299 0.342 0.071 0.148 0.106 0.32 0.106 0.514v0.089zM13.856 22.039c0-0.209-0.037-0.367-0.112-0.475s-0.181-0.163-0.319-0.163c-0.138 0-0.243 0.054-0.318 0.161-0.075 0.106-0.112 0.263-0.113 0.469v0.097c0 0.203 0.037 0.36 0.112 0.472s0.182 0.168 0.322 0.168c0.138 0 0.243-0.054 0.316-0.161s0.111-0.265 0.112-0.472v-0.097zM15.599 22.556c0-0.077-0.027-0.137-0.082-0.177-0.055-0.042-0.153-0.086-0.295-0.131-0.142-0.047-0.254-0.092-0.337-0.137-0.225-0.122-0.339-0.286-0.339-0.492 0-0.107 0.030-0.203 0.090-0.287s0.148-0.151 0.261-0.198c0.114-0.047 0.241-0.071 0.382-0.071s0.268 0.026 0.379 0.077c0.111 0.051 0.197 0.124 0.258 0.217s0.093 0.2 0.093 0.319h-0.41c0-0.091-0.029-0.161-0.086-0.211-0.057-0.051-0.138-0.076-0.242-0.076-0.1 0-0.178 0.021-0.234 0.064s-0.083 0.098-0.083 0.166c0 0.064 0.033 0.119 0.097 0.163 0.066 0.043 0.161 0.085 0.288 0.123 0.233 0.070 0.403 0.157 0.509 0.261s0.16 0.233 0.16 0.387c0 0.172-0.065 0.307-0.195 0.405s-0.305 0.146-0.526 0.146c-0.153 0-0.292-0.028-0.418-0.083s-0.222-0.133-0.288-0.231c-0.066-0.098-0.098-0.21-0.098-0.339h0.411c0 0.219 0.131 0.329 0.393 0.329 0.098 0 0.173-0.020 0.228-0.059s0.082-0.095 0.082-0.166zM17.783 21.422h-0.608v1.655h-0.41v-1.655h-0.6v-0.332h1.618v0.332zM19.213 22.216h-0.786v0.532h0.922v0.329h-1.332v-1.987h1.329v0.332h-0.919v0.474h0.786v0.321zM20.325 22.35h-0.326v0.727h-0.41v-1.987h0.738c0.235 0 0.416 0.053 0.543 0.157s0.191 0.252 0.191 0.443c0 0.135-0.030 0.249-0.089 0.34s-0.147 0.162-0.266 0.216l0.43 0.812v0.019h-0.439l-0.372-0.727zM19.999 22.018h0.331c0.103 0 0.183-0.026 0.239-0.077s0.085-0.125 0.085-0.217c0-0.094-0.027-0.167-0.081-0.221-0.053-0.054-0.134-0.081-0.244-0.081h-0.329v0.597zM22.479 22.377v0.7h-0.41v-1.987h0.775c0.149 0 0.28 0.027 0.393 0.082s0.201 0.132 0.262 0.234c0.061 0.1 0.092 0.215 0.092 0.342 0 0.195-0.067 0.348-0.2 0.461-0.133 0.112-0.317 0.168-0.553 0.168h-0.359zM22.479 22.046h0.366c0.108 0 0.191-0.025 0.247-0.076 0.057-0.051 0.086-0.124 0.086-0.218 0-0.098-0.029-0.176-0.086-0.236s-0.137-0.091-0.237-0.093h-0.375v0.624zM25.069 22.216h-0.786v0.532h0.922v0.329h-1.332v-1.987h1.329v0.332h-0.919v0.474h0.786v0.321zM26.968 21.422h-0.608v1.655h-0.41v-1.655h-0.6v-0.332h1.618v0.332zM28.399 22.216h-0.786v0.532h0.922v0.329h-1.332v-1.987h1.329v0.332h-0.919v0.474h0.786v0.321zM29.51 22.35h-0.326v0.727h-0.41v-1.987h0.738c0.235 0 0.416 0.053 0.543 0.157s0.191 0.252 0.191 0.443c0 0.135-0.029 0.249-0.089 0.34s-0.147 0.162-0.266 0.216l0.43 0.812v0.019h-0.439l-0.372-0.727zM29.184 22.018h0.331c0.103 0 0.183-0.026 0.239-0.077s0.085-0.125 0.085-0.217c0-0.094-0.027-0.167-0.081-0.221-0.053-0.054-0.134-0.081-0.244-0.081h-0.329v0.597zM31.59 22.556c0-0.077-0.027-0.137-0.082-0.177-0.055-0.042-0.153-0.086-0.295-0.131-0.142-0.047-0.254-0.092-0.337-0.137-0.225-0.122-0.339-0.286-0.339-0.492 0-0.107 0.030-0.203 0.090-0.287s0.148-0.151 0.261-0.198c0.114-0.047 0.241-0.071 0.382-0.071s0.268 0.026 0.379 0.077c0.111 0.051 0.197 0.124 0.258 0.217s0.093 0.2 0.093 0.319h-0.41c0-0.091-0.029-0.161-0.086-0.211-0.057-0.051-0.138-0.076-0.242-0.076-0.1 0-0.178 0.021-0.234 0.064s-0.083 0.098-0.083 0.166c0 0.064 0.032 0.119 0.097 0.163 0.066 0.043 0.161 0.085 0.288 0.123 0.233 0.070 0.403 0.157 0.509 0.261s0.16 0.233 0.16 0.387c0 0.172-0.065 0.307-0.195 0.405s-0.305 0.146-0.526 0.146c-0.153 0-0.292-0.028-0.418-0.083s-0.222-0.133-0.288-0.231c-0.066-0.098-0.098-0.21-0.098-0.339h0.411c0 0.219 0.131 0.329 0.393 0.329 0.098 0 0.173-0.020 0.228-0.059s0.082-0.095 0.082-0.166z"></path>
</symbol>
<symbol id="brand" viewBox="0 0 43 32">
<path d="M3.264 26.464c0.167 0.189 0.256 0.427 0.252 0.67 0.009 0.159-0.022 0.317-0.090 0.464s-0.17 0.277-0.3 0.383c-0.325 0.225-0.727 0.334-1.133 0.309h-1.992v-4.248h1.951c0.385-0.023 0.767 0.076 1.081 0.282 0.126 0.096 0.226 0.219 0.292 0.357s0.095 0.288 0.087 0.438c0.011 0.234-0.069 0.465-0.227 0.649-0.151 0.169-0.361 0.286-0.594 0.332 0.264 0.044 0.503 0.173 0.673 0.363zM0.927 25.823h0.834c0.19 0.013 0.378-0.037 0.53-0.141 0.063-0.052 0.111-0.116 0.142-0.188s0.044-0.149 0.037-0.227c0.006-0.077-0.007-0.154-0.037-0.226s-0.078-0.136-0.139-0.189c-0.157-0.107-0.351-0.158-0.546-0.143h-0.82v1.114zM2.373 27.451c0.067-0.053 0.12-0.12 0.154-0.195s0.049-0.156 0.043-0.237c0.005-0.082-0.010-0.164-0.045-0.239s-0.088-0.143-0.156-0.196c-0.163-0.111-0.364-0.165-0.567-0.154h-0.875v1.168h0.886c0.199 0.011 0.397-0.041 0.56-0.147z"></path>
<path d="M7.252 28.29l-1.086-1.66h-0.408v1.66h-0.934v-4.248h1.768c0.446-0.028 0.886 0.101 1.231 0.361 0.247 0.231 0.396 0.534 0.42 0.857s-0.078 0.642-0.289 0.901c-0.218 0.229-0.516 0.381-0.843 0.432l1.156 1.697h-1.015zM5.759 26.051h0.764c0.53 0 0.795-0.214 0.795-0.643 0.005-0.088-0.009-0.175-0.043-0.257s-0.085-0.157-0.152-0.22c-0.168-0.128-0.383-0.19-0.601-0.172h-0.773l0.009 1.293z"></path>
<path d="M12.356 27.435h-1.861l-0.329 0.855h-0.979l1.709-4.2h1.058l1.702 4.2h-0.979l-0.322-0.855zM12.107 26.791l-0.68-1.793-0.68 1.793h1.36z"></path>
<path d="M18.745 28.29h-0.927l-2.078-2.889v2.889h-0.925v-4.248h0.925l2.078 2.905v-2.905h0.927v4.248z"></path>
<path d="M24.034 27.273c-0.192 0.321-0.484 0.582-0.839 0.749-0.403 0.187-0.851 0.279-1.303 0.268h-1.65v-4.248h1.65c0.451-0.011 0.898 0.079 1.303 0.261 0.355 0.164 0.647 0.422 0.839 0.741 0.191 0.346 0.29 0.727 0.29 1.114s-0.099 0.769-0.29 1.114zM22.974 27.171c0.265-0.282 0.41-0.642 0.41-1.014s-0.145-0.732-0.41-1.014c-0.32-0.256-0.737-0.385-1.16-0.361h-0.644v2.75h0.644c0.424 0.024 0.841-0.105 1.16-0.361z"></path>
<path d="M12.936 0.415c0 0 11.964 4.136 11.71 10.12v10.122c0 0-11.955-4.138-11.706-10.122l-0.005-10.12z"></path>
<path d="M35.305 18.288c2.26-1.424 4.873-2.306 7.601-2.565v-3.169c-3.144 1.109-5.81 3.121-7.601 5.733z"></path>
<path d="M33.947 19.242c1.849-3.41 5.056-6.041 8.959-7.352v-9.13c0 0-17.038 5.891-16.678 14.414v14.412c0 0 0.759-0.264 1.954-0.757 0-0.461 0-0.925 0.054-1.392 0.353-3.957 2.407-7.623 5.711-10.193z"></path>
<path d="M32.327 24.596c0.090-1 0.289-1.988 0.596-2.951-2.057 2.219-3.303 4.974-3.563 7.875-0.025 0.274-0.039 0.548-0.045 0.83 0.968-0.425 2.094-0.957 3.277-1.581-0.302-1.373-0.391-2.778-0.265-4.173z"></path>
<path d="M33.005 24.648c-0.114 1.263-0.043 2.533 0.211 3.779 4.655-2.55 9.886-6.491 9.684-11.253v-0.415c-3.326 0.341-6.438 1.672-8.857 3.789-0.566 1.312-0.916 2.694-1.038 4.1z"></path>
</symbol>
<symbol id="company-tag-line" viewBox="0 0 67 32">
<path d="M33.798 15.058c-0.316-0.42-0.467-0.917-0.431-1.417v-2.055c0-0.63 0.143-1.109 0.429-1.436s0.776-0.491 1.472-0.489c0.654 0 1.118 0.139 1.392 0.418 0.299 0.356 0.445 0.79 0.412 1.229v0.483h-1.169v-0.489c0.004-0.16-0.007-0.32-0.034-0.479-0.017-0.108-0.076-0.209-0.167-0.284-0.12-0.082-0.271-0.121-0.424-0.111-0.16-0.010-0.319 0.031-0.445 0.117-0.102 0.084-0.17 0.194-0.194 0.313-0.034 0.168-0.049 0.338-0.046 0.508v2.494c-0.018 0.241 0.033 0.481 0.15 0.7 0.058 0.074 0.139 0.133 0.233 0.17s0.199 0.051 0.302 0.039c0.15 0.011 0.298-0.030 0.414-0.113 0.095-0.082 0.157-0.188 0.174-0.303 0.027-0.165 0.039-0.332 0.036-0.5v-0.506h1.169v0.462c0.033 0.457-0.109 0.911-0.404 1.292-0.269 0.305-0.726 0.458-1.399 0.458s-1.182-0.163-1.47-0.502z"></path>
<path d="M38.667 15.079c-0.295-0.32-0.443-0.786-0.443-1.403v-2.161c0-0.61 0.148-1.072 0.443-1.386s0.789-0.47 1.482-0.468c0.688 0 1.179 0.156 1.474 0.468 0.295 0.314 0.445 0.776 0.445 1.386v2.161c0 0.61-0.15 1.079-0.45 1.4s-0.789 0.483-1.47 0.483c-0.68 0-1.184-0.163-1.482-0.481zM40.694 14.561c0.106-0.2 0.154-0.42 0.14-0.64v-2.646c0.014-0.216-0.034-0.431-0.138-0.627-0.059-0.076-0.142-0.135-0.239-0.172s-0.204-0.050-0.308-0.037c-0.105-0.013-0.212 0-0.309 0.037s-0.18 0.096-0.24 0.172c-0.106 0.196-0.155 0.411-0.14 0.627v2.659c-0.015 0.22 0.033 0.44 0.14 0.64 0.068 0.067 0.152 0.121 0.247 0.159s0.197 0.056 0.301 0.056c0.104 0 0.206-0.019 0.3-0.056s0.178-0.091 0.247-0.159v-0.013z"></path>
<path d="M43.475 9.724h1.259l0.947 3.988 0.968-3.988h1.225l0.124 5.756h-0.906l-0.097-4-0.934 4h-0.726l-0.968-4.015-0.090 4.015h-0.915l0.114-5.756z"></path>
<path d="M49.409 9.724h1.961c1.13 0 1.695 0.545 1.695 1.634 0 1.044-0.595 1.565-1.784 1.563h-0.668v2.558h-1.211l0.007-5.756zM51.085 12.184c0.12 0.013 0.241 0.004 0.356-0.028s0.221-0.084 0.31-0.154c0.139-0.194 0.2-0.423 0.174-0.65 0.006-0.176-0.013-0.351-0.058-0.523-0.017-0.057-0.048-0.111-0.089-0.158s-0.094-0.086-0.153-0.116c-0.168-0.070-0.354-0.101-0.54-0.092h-0.47v1.72h0.47z"></path>
<path d="M54.811 9.724h1.3l1.334 5.756h-1.128l-0.264-1.327h-1.16l-0.271 1.327h-1.145l1.334-5.756zM55.922 13.486l-0.453-2.416-0.453 2.416h0.905z"></path>
<path d="M58.522 9.724h0.847l1.622 3.284v-3.284h1.005v5.756h-0.806l-1.632-3.428v3.428h-1.039l0.002-5.756z"></path>
<path d="M64.35 13.286l-1.349-3.553h1.135l0.823 2.282 0.772-2.282h1.111l-1.332 3.553v2.195h-1.162v-2.195z"></path>
<path d="M35.667 17.997v0.301h-0.988v2.339h-0.414v-2.339h-0.993v-0.301h2.394z"></path>
<path d="M38.764 20.637h-0.32c-0.032 0.002-0.064-0.007-0.090-0.025-0.024-0.015-0.043-0.036-0.053-0.061l-0.286-0.627h-1.37l-0.286 0.627c-0.008 0.026-0.023 0.051-0.044 0.071-0.025 0.018-0.057 0.026-0.090 0.025h-0.32l1.211-2.64h0.421l1.225 2.629zM36.759 19.657h1.143l-0.484-1.074c-0.036-0.081-0.066-0.164-0.090-0.249-0.017 0.050-0.032 0.098-0.046 0.14l-0.044 0.111-0.479 1.072z"></path>
<path d="M40.851 20.378c0.076 0.003 0.152 0.003 0.228 0 0.066-0.006 0.13-0.016 0.194-0.031 0.059-0.013 0.118-0.029 0.174-0.048 0.053-0.019 0.107-0.042 0.162-0.065v-0.594h-0.484c-0.012 0.001-0.024-0.001-0.035-0.005s-0.022-0.009-0.030-0.016c-0.008-0.006-0.014-0.013-0.018-0.022s-0.006-0.017-0.006-0.026v-0.203h0.939v1.012c-0.077 0.047-0.158 0.089-0.242 0.125-0.086 0.037-0.176 0.067-0.269 0.090-0.099 0.025-0.2 0.043-0.303 0.054-0.117 0.011-0.235 0.017-0.353 0.017-0.209 0.002-0.416-0.032-0.61-0.098-0.181-0.063-0.346-0.157-0.484-0.276-0.135-0.12-0.241-0.262-0.312-0.418-0.076-0.175-0.114-0.361-0.111-0.548-0.003-0.188 0.034-0.375 0.109-0.552 0.070-0.156 0.176-0.299 0.312-0.418 0.138-0.119 0.303-0.212 0.484-0.274 0.207-0.067 0.427-0.101 0.649-0.098 0.113-0 0.225 0.008 0.337 0.023 0.098 0.014 0.195 0.036 0.288 0.067 0.085 0.027 0.166 0.063 0.242 0.104 0.074 0.041 0.145 0.087 0.211 0.138l-0.116 0.163c-0.009 0.015-0.023 0.027-0.039 0.036s-0.036 0.014-0.055 0.014c-0.027-0.001-0.053-0.008-0.075-0.021-0.036-0.017-0.075-0.038-0.119-0.063-0.051-0.028-0.106-0.052-0.162-0.071-0.072-0.025-0.147-0.045-0.223-0.059-0.101-0.016-0.204-0.024-0.308-0.023-0.16-0.002-0.318 0.023-0.467 0.073-0.135 0.047-0.256 0.118-0.356 0.209-0.1 0.095-0.177 0.207-0.225 0.328-0.108 0.286-0.108 0.594 0 0.88 0.053 0.124 0.135 0.237 0.242 0.332 0.099 0.091 0.22 0.162 0.353 0.209 0.154 0.046 0.317 0.063 0.479 0.052z"></path>
<path d="M44.71 20.336h1.322v0.301h-1.726v-2.64h0.414l-0.010 2.339z"></path>
<path d="M47.407 20.637h-0.414v-2.64h0.414v2.64z"></path>
<path d="M48.947 18.010c0.025 0.012 0.046 0.029 0.063 0.048l1.77 1.99c-0.002-0.031-0.002-0.063 0-0.094 0-0.029 0-0.058 0-0.086v-1.881h0.361v2.651h-0.208c-0.031 0.002-0.062-0.003-0.090-0.015-0.025-0.013-0.047-0.030-0.065-0.050l-1.767-1.988c0 0.031 0 0.061 0 0.090s0 0.056 0 0.082v1.881h-0.346v-2.64h0.215c0.023 0 0.046 0.004 0.068 0.013z"></path>
<path d="M54.189 17.997v0.291h-1.467v0.872h1.189v0.28h-1.189v0.901h1.467v0.291h-1.893v-2.634h1.893z"></path>
<path d="M10.805 1.694l18.383 4.506v15.791l-18.383-4.504v-15.793zM9.626 0.348v17.907l20.739 5.085v-17.904l-20.739-5.088z"></path>
<path d="M20.741 31.652l-20.741-5.090v-17.905l20.741 5.088v17.907z"></path>
<path d="M9.97 1.491l18.144 4.45-7.716 6.663-18.146-4.452 7.718-6.661zM9.626 0.348l-9.626 8.31 20.741 5.087 9.624-8.31-20.739-5.087z"></path>
<path d="M21.908 30.645l8.457-7.303-8.457-2.075v9.378z"></path>
</symbol>
<symbol id="antenna" viewBox="0 0 32 32">
<path fill="#212121" style="fill: var(--color1, #212121)" d="M30.773 22.098l-8.443-8.505 0.937-4.616c0.242 0.094 0.499 0.144 0.758 0.146h0.006c1.192 0.014 2.17-0.941 2.184-2.133s-0.941-2.17-2.133-2.184c-1.192-0.014-2.17 0.941-2.184 2.133-0.003 0.255 0.039 0.509 0.125 0.749l-4.96 0.605-8.091-8.133c-0.099-0.101-0.235-0.159-0.377-0.16-0.14 0.001-0.274 0.056-0.373 0.155l-1.513 1.504c-0.208 0.208-0.208 0.546 0 0.754l0.814 0.826c-3.153 5.798-2.129 12.978 2.519 17.663 0.043 0.041 0.092 0.074 0.146 0.098-0.034 0.18-0.051 0.364-0.052 0.547v6.187h-6.4c-1.472 0.002-2.665 1.195-2.667 2.667v1.067c0 0.295 0.239 0.533 0.533 0.533h24.533c0.295 0 0.533-0.239 0.533-0.533v-1.067c-0.002-1.472-1.195-2.665-2.667-2.667h-6.4v-2.742c1.003 0.21 2.024 0.317 3.049 0.32 2.458-0.003 4.877-0.615 7.040-1.783l0.818 0.823c0.099 0.101 0.235 0.159 0.377 0.16 0.14-0.001 0.274-0.056 0.373-0.155l1.513-1.504c0.208-0.208 0.208-0.546 0-0.754zM23.28 6.233c0.418-0.415 1.093-0.414 1.508 0.004s0.414 1.093-0.004 1.508c-0.2 0.199-0.47 0.31-0.752 0.31h-0.003c-0.589-0.003-1.064-0.483-1.061-1.072 0.002-0.282 0.115-0.552 0.314-0.751h-0.002zM22.024 9.738l-0.598 2.946-1.175-1.182 1.774-1.763zM21.418 8.836l-1.92 1.909-1.485-1.493 3.405-0.415zM24.004 28.8c0.884 0 1.6 0.716 1.6 1.6v0.533h-23.467v-0.533c0-0.884 0.716-1.6 1.6-1.6h20.267zM16.537 26.667v1.067h-5.333v-1.067h5.333zM11.204 25.6v-4.053c0-1.294 1.196-2.347 2.667-2.347s2.667 1.053 2.667 2.347v4.053h-5.333zM17.604 23.904v-2.357c0-1.882-1.675-3.413-3.733-3.413-1.331-0.020-2.576 0.657-3.281 1.786-4.058-4.274-4.971-10.645-2.279-15.887l18.602 18.709c-2.872 1.461-6.165 1.873-9.309 1.163zM28.893 23.22l-21.057-21.181 0.755-0.752 7.935 7.98c0.004 0 0.006 0.007 0.010 0.010l13.115 13.191-0.757 0.752z"></path>
<path fill="#2196f3" style="fill: var(--color2, #2196f3)" d="M13.876 20.267h-0.005c-0.884-0.001-1.601 0.714-1.602 1.598s0.714 1.601 1.598 1.602h0.005c0.884 0.001 1.601-0.714 1.602-1.598s-0.714-1.601-1.598-1.602zM14.249 22.245c-0.1 0.1-0.236 0.156-0.378 0.155-0.295-0.002-0.532-0.242-0.531-0.536 0.001-0.141 0.057-0.276 0.157-0.375s0.233-0.154 0.373-0.155c0.295 0.002 0.532 0.241 0.53 0.536-0.001 0.141-0.057 0.276-0.157 0.375h0.005z"></path>
</symbol>
<symbol id="clock" viewBox="0 0 32 32">
<path fill="#212121" style="fill: var(--color1, #212121)" d="M31.305 15.301c-0.002-8.452-6.855-15.303-15.308-15.301s-15.303 6.855-15.301 15.308c0.001 6.658 4.307 12.551 10.649 14.576 0.061 0.019 0.124 0.029 0.187 0.029 0.121-0 0.239-0.032 0.342-0.094 0.135-0.080 0.236-0.207 0.283-0.356l3.865-12.25c1.057-0.005 1.909-0.866 1.903-1.923s-0.866-1.909-1.923-1.903c-0.284 0.001-0.565 0.067-0.82 0.191l-5.106-5.107c-0.253-0.245-0.657-0.238-0.902 0.016-0.239 0.247-0.239 0.639 0 0.886l5.103 5.109c-0.392 0.799-0.168 1.764 0.536 2.309l-3.683 11.673c-7.278-2.681-11.004-10.754-8.323-18.032s10.754-11.004 18.032-8.323 11.004 10.754 8.323 18.032c-1.31 3.556-4.001 6.431-7.462 7.973l-0.398-1.874c-0.073-0.344-0.411-0.565-0.756-0.492-0.109 0.023-0.209 0.074-0.292 0.148l-3.837 3.426c-0.263 0.234-0.287 0.637-0.052 0.9 0.076 0.085 0.174 0.149 0.283 0.184l4.899 1.563c0.335 0.108 0.694-0.077 0.802-0.412 0.034-0.106 0.040-0.219 0.017-0.328l-0.391-1.839c5.664-2.388 9.342-7.942 9.329-14.089zM16 14.664c0.352 0 0.638 0.286 0.638 0.638s-0.286 0.638-0.638 0.638c-0.352 0-0.638-0.285-0.638-0.638s0.285-0.638 0.638-0.638zM18.1 29.528l2.184-1.948 0.603 2.84-2.787-0.892z"></path>
<path fill="#2196f3" style="fill: var(--color2, #2196f3)" d="M15.362 3.185v1.275c0 0.352 0.285 0.638 0.638 0.638s0.638-0.285 0.638-0.638v-1.275c0-0.352-0.286-0.638-0.638-0.638s-0.638 0.286-0.638 0.638z"></path>
<path fill="#2196f3" style="fill: var(--color2, #2196f3)" d="M3.884 14.664c-0.352 0-0.638 0.286-0.638 0.638s0.285 0.638 0.638 0.638h1.275c0.352 0 0.638-0.285 0.638-0.638s-0.285-0.638-0.638-0.638h-1.275z"></path>
<path fill="#2196f3" style="fill: var(--color2, #2196f3)" d="M28.116 15.939c0.352 0 0.638-0.285 0.638-0.638s-0.285-0.638-0.638-0.638h-1.275c-0.352 0-0.638 0.286-0.638 0.638s0.286 0.638 0.638 0.638h1.275z"></path>
</symbol>
<symbol id="diagram" viewBox="0 0 32 32">
<path fill="#2196f3" style="fill: var(--color2, #2196f3)" d="M14.925 14.945h1.066v4.798h-1.066v-4.797z"></path>
<path fill="#2196f3" style="fill: var(--color2, #2196f3)" d="M19.19 17.077h1.066v2.665h-1.066v-2.665z"></path>
<path fill="#2196f3" style="fill: var(--color2, #2196f3)" d="M10.661 18.676h1.066v1.066h-1.066v-1.066z"></path>
<path fill="#2196f3" style="fill: var(--color2, #2196f3)" d="M7.463 18.143h1.066v1.599h-1.066v-1.599z"></path>
<path fill="#212121" style="fill: var(--color1, #212121)" d="M1.599 28.271h25.587c0.883 0 1.599-0.716 1.599-1.599v-2.132c0-0.883-0.716-1.599-1.599-1.599h-0.533v-13.293l3.028-2.868c0.703 0.346 1.553 0.136 2.013-0.499s0.396-1.508-0.152-2.068-1.42-0.644-2.065-0.198c-0.644 0.446-0.873 1.292-0.542 2.002l-2.281 2.163v-1.23c0-0.883-0.716-1.599-1.599-1.599h-21.322c-0.883 0-1.599 0.716-1.599 1.599v15.992h-0.533c-0.883 0-1.599 0.716-1.599 1.599v2.132c0 0.883 0.716 1.599 1.599 1.599zM30.384 4.817c0.294 0 0.533 0.239 0.533 0.533s-0.239 0.533-0.533 0.533c-0.294 0-0.533-0.239-0.533-0.533s0.239-0.533 0.533-0.533zM3.198 6.949c0-0.294 0.239-0.533 0.533-0.533h21.322c0.294 0 0.533 0.239 0.533 0.533v2.239l-1.066 1.013v-2.186c0-0.294-0.239-0.533-0.533-0.533h-19.19c-0.294 0-0.533 0.239-0.533 0.533v13.326c0 0.294 0.239 0.533 0.533 0.533h19.19c0.294 0 0.533-0.239 0.533-0.533v-9.674l1.066-1.010v12.284h-22.388v-15.992zM7.996 13.879c-0.721-0.002-1.354 0.478-1.546 1.174s0.105 1.433 0.725 1.801c0.62 0.368 1.41 0.276 1.928-0.226l1.853 0.93c0.215 0.108 0.476 0.057 0.636-0.123l3.939-4.431 3.872 2.901c0.208 0.156 0.498 0.139 0.686-0.039l3.365-3.188v8.131h-18.124v-12.26h18.124v2.66l-3.771 3.572-3.904-2.927c-0.222-0.166-0.534-0.135-0.718 0.072l-3.993 4.493-1.493-0.746c0.011-0.064 0.018-0.129 0.020-0.193 0-0.883-0.716-1.599-1.599-1.599zM8.529 15.478c0 0.294-0.239 0.533-0.533 0.533s-0.533-0.239-0.533-0.533c0-0.294 0.239-0.533 0.533-0.533s0.533 0.239 0.533 0.533zM11.727 24.007h5.331v0.533c0 0.294-0.239 0.533-0.533 0.533h-4.264c-0.294 0-0.533-0.239-0.533-0.533v-0.533zM1.066 24.54c0-0.294 0.239-0.533 0.533-0.533h9.062v0.533c0 0.883 0.716 1.599 1.599 1.599h4.264c0.883 0 1.599-0.716 1.599-1.599v-0.533h9.062c0.294 0 0.533 0.239 0.533 0.533v2.132c0 0.294-0.239 0.533-0.533 0.533h-25.587c-0.294 0-0.533-0.239-0.533-0.533v-2.132z"></path>
</symbol>
<symbol id="astronaut" viewBox="0 0 32 32">
<path fill="#2196f3" style="fill: var(--color2, #2196f3)" d="M31.974 4.524c-0.063-0.193-0.229-0.333-0.43-0.363l-1.91-0.278-0.855-1.731c-0.179-0.365-0.777-0.365-0.956 0l-0.855 1.731-1.91 0.278c-0.201 0.029-0.367 0.17-0.431 0.363-0.062 0.193-0.011 0.405 0.135 0.547l1.383 1.348-0.326 1.903c-0.034 0.2 0.048 0.402 0.212 0.522 0.166 0.121 0.382 0.135 0.562 0.040l1.709-0.899 1.709 0.899c0.078 0.041 0.164 0.061 0.249 0.061 0.11 0 0.221-0.034 0.314-0.102 0.164-0.119 0.246-0.322 0.212-0.522l-0.326-1.903 1.383-1.348c0.145-0.142 0.197-0.354 0.135-0.547zM29.511 5.851c-0.125 0.122-0.183 0.299-0.153 0.472l0.191 1.114-1-0.526c-0.078-0.041-0.163-0.061-0.249-0.061s-0.17 0.020-0.249 0.061l-1.001 0.526 0.191-1.114c0.030-0.173-0.028-0.349-0.153-0.472l-0.81-0.789 1.119-0.163c0.174-0.025 0.324-0.134 0.402-0.292l0.5-1.013 0.5 1.013c0.078 0.157 0.228 0.267 0.402 0.292l1.119 0.163-0.809 0.789z"></path>
<path fill="#2196f3" style="fill: var(--color2, #2196f3)" d="M26.133 20.522h-1.067v1.067h1.067v-1.067z"></path>
<path fill="#2196f3" style="fill: var(--color2, #2196f3)" d="M26.133 22.656h-1.067v1.067h1.067v-1.067z"></path>
<path fill="#2196f3" style="fill: var(--color2, #2196f3)" d="M27.2 21.589h-1.067v1.067h1.067v-1.067z"></path>
<path fill="#2196f3" style="fill: var(--color2, #2196f3)" d="M25.067 21.589h-1.067v1.067h1.067v-1.067z"></path>
<path fill="#2196f3" style="fill: var(--color2, #2196f3)" d="M22.4 26.389h-1.067v1.067h1.067v-1.067z"></path>
<path fill="#2196f3" style="fill: var(--color2, #2196f3)" d="M22.4 28.522h-1.067v1.067h1.067v-1.067z"></path>
<path fill="#2196f3" style="fill: var(--color2, #2196f3)" d="M23.467 27.456h-1.067v1.067h1.067v-1.067z"></path>
<path fill="#2196f3" style="fill: var(--color2, #2196f3)" d="M21.333 27.456h-1.067v1.067h1.067v-1.067z"></path>
<path fill="#2196f3" style="fill: var(--color2, #2196f3)" d="M16 24.256h-1.067v1.067h1.067v-1.067z"></path>
<path fill="#2196f3" style="fill: var(--color2, #2196f3)" d="M16 26.389h-1.067v1.067h1.067v-1.067z"></path>
<path fill="#2196f3" style="fill: var(--color2, #2196f3)" d="M17.067 25.322h-1.067v1.067h1.067v-1.067z"></path>
<path fill="#2196f3" style="fill: var(--color2, #2196f3)" d="M14.933 25.322h-1.067v1.067h1.067v-1.067z"></path>
<path fill="#2196f3" style="fill: var(--color2, #2196f3)" d="M5.866 6.122h-1.067v1.067h1.067v-1.067z"></path>
<path fill="#2196f3" style="fill: var(--color2, #2196f3)" d="M5.866 8.255h-1.067v1.067h1.067v-1.067z"></path>
<path fill="#2196f3" style="fill: var(--color2, #2196f3)" d="M6.933 7.189h-1.067v1.067h1.067v-1.067z"></path>
<path fill="#2196f3" style="fill: var(--color2, #2196f3)" d="M4.8 7.189h-1.067v1.067h1.067v-1.067z"></path>
<path fill="#212121" style="fill: var(--color1, #212121)" d="M24.715 14.159c-0.287-0.388-0.709-0.637-1.188-0.705-0.481-0.068-0.956 0.058-1.34 0.352l-1.252 0.96-1.898 1.417-1.358-0.541c2.421-1.086 4.114-3.508 4.114-6.32 0-3.823-3.123-6.933-6.961-6.933s-6.961 3.11-6.961 6.933c0 1.386 0.414 2.674 1.12 3.758l-2.764-0.024c-0.002 0-0.003 0-0.005 0-0.009 0-0.015 0.004-0.023 0.005-0.053 0.002-0.105 0.013-0.155 0.031-0.013 0.005-0.026 0.008-0.038 0.013-0.006 0.003-0.013 0.003-0.019 0.006l-3.233 1.596c-0.001 0-0.001 0-0.001 0.001l-1.893 0.911c-0.021 0.009-0.042 0.021-0.063 0.035-0.755 0.502-1.012 1.489-0.598 2.295 0.22 0.429 0.595 0.745 1.056 0.889 0.178 0.055 0.359 0.083 0.539 0.083 0.29 0 0.577-0.071 0.839-0.211l1.388-0.738 2.264-1.169 1.357-0.008-5.442 5.416c-0.001 0.001-0.001 0.001-0.002 0.001l-1.339 1.333c-0.316 0.315-0.49 0.732-0.49 1.178s0.174 0.863 0.49 1.179c0.325 0.323 0.752 0.485 1.179 0.485s0.854-0.162 1.18-0.485l1.314-1.309 1.741-1.3 0.901 0.897-1.762 1.754c-0 0.001-0.001 0.001-0.002 0.001l-1.339 1.333c-0.316 0.315-0.49 0.732-0.49 1.178s0.174 0.863 0.49 1.179c0.325 0.323 0.753 0.485 1.18 0.485s0.855-0.162 1.18-0.485l3.482-3.467c0.001-0.001 0.001-0.001 0.001-0.002l1.010-1-0.004-0.004c0.006-0.006 0.015-0.009 0.022-0.015l5.166-5.658 3.471 0.494c0.025 0.004 0.050 0.005 0.075 0.005 0.065 0 0.127-0.015 0.187-0.038 0.018-0.006 0.033-0.015 0.050-0.023 0.019-0.010 0.039-0.015 0.058-0.027l3.213-2.133c0.012-0.008 0.018-0.021 0.029-0.029 0.013-0.010 0.029-0.014 0.041-0.026l1.271-1.191c0.662-0.62 0.753-1.635 0.212-2.362zM2.13 17.77c-0.173 0.093-0.37 0.111-0.558 0.052-0.187-0.058-0.338-0.186-0.427-0.358-0.161-0.314-0.068-0.695 0.214-0.902l1.314-0.632 0.449 1.312-0.992 0.528zM5.628 15.942l-1.548 0.8-0.439-1.283 2.027-1.001-0.040 1.484zM20.727 9.322c0 0.918-0.219 1.785-0.599 2.559l-4.181-1.899c-0.044-0.573-0.341-1.075-0.788-1.388l1.464-4.86c2.378 0.756 4.105 2.974 4.105 5.588zM8.938 9.322c0-3.235 2.644-5.867 5.894-5.867 0.253 0 0.5 0.021 0.745 0.052l-1.432 4.754c-0.019-0.001-0.037-0.006-0.057-0.006-1.033 0-1.873 0.837-1.873 1.867s0.84 1.867 1.873 1.867c0.694 0 1.294-0.383 1.618-0.945l3.862 1.755c-1.075 1.446-2.795 2.39-4.737 2.39-3.25 0-5.894-2.632-5.894-5.867zM14.894 10.122c0 0.441-0.362 0.8-0.806 0.8s-0.806-0.359-0.806-0.8c0-0.441 0.362-0.8 0.806-0.8s0.806 0.359 0.806 0.8zM2.465 25.146c-0.236 0.234-0.619 0.234-0.854 0.001-0.114-0.114-0.176-0.263-0.176-0.423s0.062-0.309 0.176-0.421l0.962-0.958 0.851 0.848-0.959 0.955zM5.679 28.88c-0.236 0.234-0.619 0.235-0.855 0.001-0.114-0.114-0.176-0.263-0.176-0.423s0.062-0.309 0.176-0.421l0.963-0.959 0.852 0.848-0.96 0.955zM9.16 25.411c-0.001 0-0.001 0-0.002 0.001l-1.765 1.76-0.852-0.848 1.763-1.755c0 0 0 0 0-0s0.001-0.001 0.002-0.001c0.040-0.040 0.065-0.088 0.090-0.135 0.007-0.014 0.020-0.026 0.026-0.040 0.017-0.041 0.019-0.085 0.026-0.129 0.003-0.025 0.014-0.047 0.014-0.073 0-0.036-0.013-0.070-0.020-0.106-0.006-0.032-0.006-0.065-0.019-0.095-0.020-0.050-0.055-0.094-0.091-0.138-0.010-0.012-0.014-0.027-0.025-0.038 0 0 0 0-0.001 0s-0.001-0.002-0.001-0.002l-1.607-1.6c-0.017-0.017-0.039-0.024-0.058-0.038-0.028-0.022-0.055-0.042-0.087-0.058-0.030-0.015-0.061-0.024-0.093-0.033-0.034-0.010-0.067-0.017-0.103-0.020-0.033-0.002-0.063 0.001-0.095 0.005-0.036 0.004-0.069 0.009-0.104 0.020-0.034 0.011-0.063 0.027-0.094 0.045-0.020 0.011-0.042 0.015-0.061 0.029l-1.773 1.324-0.901-0.897 2.399-2.386 4.361 4.289-0.928 0.919zM15.979 18.394c-0.015-0.002-0.030 0.004-0.045 0.003-0.039-0.002-0.076 0.001-0.115 0.007-0.030 0.005-0.059 0.011-0.088 0.021-0.034 0.012-0.065 0.028-0.097 0.047-0.030 0.018-0.057 0.037-0.083 0.061-0.013 0.011-0.028 0.017-0.040 0.029l-4.698 5.146-4.328-4.257 2.833-2.818c0.209-0.208 0.21-0.546 0.002-0.755-0.105-0.105-0.243-0.157-0.381-0.156v-0.001l-2.219 0.013 0.028-1.607 3.104 0.027c1.265 1.294 3.029 2.101 4.981 2.101 0.437 0 0.864-0.045 1.279-0.123 0.040 0.032 0.079 0.065 0.13 0.085l2.41 0.96 0.152 0.758 0.178 0.885-3.003-0.427zM20.020 18.572l-0.313-1.558 1.446-1.080 0.947 1.257-2.080 1.381zM23.774 15.741l-0.838 0.785-0.931-1.236 0.831-0.637c0.155-0.119 0.351-0.168 0.543-0.143 0.193 0.027 0.364 0.128 0.48 0.284 0.217 0.292 0.18 0.699-0.085 0.947z"></path>
<path fill="#212121" style="fill: var(--color1, #212121)" d="M13.602 18.544l-2.143-2.133c-0.207-0.207-0.545-0.207-0.753 0l-2.142 2.133c-0.1 0.101-0.157 0.236-0.157 0.378s0.056 0.278 0.157 0.378l2.142 2.133c0.104 0.103 0.241 0.155 0.377 0.155s0.273-0.052 0.376-0.155l2.143-2.133c0.1-0.1 0.157-0.236 0.157-0.378s-0.057-0.278-0.157-0.378zM11.083 20.303l-1.387-1.381 1.387-1.381 1.387 1.381-1.387 1.381z"></path>
<path fill="#212121" style="fill: var(--color1, #212121)" d="M17.164 5.071l-0.258 1.036c0.071 0.018 1.738 0.452 1.738 2.149h1.067c-0-2.017-1.666-2.965-2.547-3.185z"></path>
<path fill="#212121" style="fill: var(--color1, #212121)" d="M19.711 9.322h-1.067v1.067h1.067v-1.067z"></path>
</symbol>
<symbol id="mail" viewBox="0 0 32 32">
<path d="M29 4h-26c-1.654 0-3 1.346-3 3v18c0 1.654 1.346 3 3 3h26c1.654 0 3-1.346 3-3v-18c0-1.654-1.346-3-3-3zM29 6c0.136 0 0.265 0.028 0.383 0.077l-13.383 11.599-13.383-11.599c0.118-0.049 0.247-0.077 0.383-0.077h26zM29 26h-26c-0.552 0-1-0.448-1-1v-16.81l13.345 11.565c0.188 0.163 0.422 0.244 0.655 0.244s0.467-0.081 0.655-0.244l13.345-11.565v16.81c0 0.552-0.448 1-1 1z"></path>
</symbol>
<symbol id="phone" viewBox="0 0 32 32">
<path d="M23 0h-14c-1.654 0-3 1.346-3 3v26c0 1.654 1.346 3 3 3h14c1.654 0 3-1.346 3-3v-26c0-1.654-1.346-3-3-3zM9 2h14c0.552 0 1 0.448 1 1v21h-16v-21c0-0.552 0.448-1 1-1zM23 30h-14c-0.552 0-1-0.448-1-1v-3h16v3c0 0.552-0.448 1-1 1z"></path>
<path d="M10.707 27.478c0.391 0.365 0.391 0.956 0 1.321s-1.024 0.365-1.414 0c-0.391-0.365-0.391-0.956 0-1.321s1.024-0.365 1.414 0z"></path>
</symbol>
<symbol id="instagram" viewBox="0 0 32 32">
<path d="M31.916 9.408c-0.075-1.7-0.35-2.869-0.744-3.882-0.406-1.075-1.032-2.038-1.851-2.838-0.8-0.813-1.769-1.444-2.832-1.844-1.019-0.394-2.182-0.669-3.882-0.744-1.713-0.081-2.257-0.1-6.601-0.1s-4.888 0.019-6.595 0.094c-1.7 0.075-2.869 0.35-3.882 0.744-1.075 0.406-2.038 1.031-2.838 1.85-0.813 0.8-1.444 1.769-1.844 2.832-0.394 1.019-0.669 2.182-0.744 3.882-0.081 1.713-0.1 2.257-0.1 6.601s0.019 4.888 0.094 6.595c0.075 1.7 0.35 2.869 0.744 3.882 0.406 1.075 1.038 2.038 1.85 2.838 0.8 0.813 1.769 1.444 2.832 1.844 1.019 0.394 2.182 0.669 3.882 0.744 1.706 0.075 2.25 0.094 6.595 0.094s4.888-0.019 6.595-0.094c1.7-0.075 2.869-0.35 3.882-0.744 2.151-0.832 3.851-2.532 4.682-4.682 0.394-1.019 0.669-2.182 0.744-3.882 0.075-1.707 0.094-2.251 0.094-6.595s-0.006-4.889-0.081-6.595zM29.034 22.473c-0.069 1.563-0.331 2.407-0.55 2.969-0.538 1.394-1.644 2.5-3.038 3.038-0.563 0.219-1.413 0.481-2.969 0.55-1.688 0.075-2.194 0.094-6.464 0.094s-4.782-0.019-6.464-0.094c-1.563-0.069-2.407-0.331-2.969-0.55-0.694-0.256-1.325-0.663-1.838-1.194-0.531-0.519-0.938-1.144-1.194-1.838-0.219-0.563-0.481-1.413-0.55-2.969-0.075-1.688-0.094-2.194-0.094-6.464s0.019-4.782 0.094-6.464c0.069-1.563 0.331-2.407 0.55-2.969 0.256-0.694 0.663-1.325 1.2-1.838 0.519-0.531 1.144-0.938 1.838-1.194 0.563-0.219 1.413-0.481 2.969-0.55 1.688-0.075 2.194-0.094 6.464-0.094 4.276 0 4.782 0.019 6.464 0.094 1.563 0.069 2.407 0.331 2.969 0.55 0.694 0.256 1.325 0.662 1.838 1.194 0.531 0.519 0.938 1.144 1.194 1.838 0.219 0.563 0.481 1.413 0.55 2.969 0.075 1.688 0.094 2.194 0.094 6.464s-0.019 4.77-0.094 6.458z"></path>
<path d="M16.006 7.783c-4.538 0-8.22 3.682-8.22 8.22s3.682 8.22 8.22 8.22c4.539 0 8.22-3.682 8.22-8.22s-3.682-8.22-8.221-8.22zM16.006 21.335c-2.944 0-5.332-2.388-5.332-5.332s2.388-5.332 5.332-5.332c2.944 0 5.332 2.388 5.332 5.332s-2.388 5.332-5.332 5.332z"></path>
<path d="M26.471 7.458c0 1.060-0.859 1.919-1.919 1.919s-1.919-0.859-1.919-1.919c0-1.060 0.859-1.919 1.919-1.919s1.919 0.859 1.919 1.919z"></path>
</symbol>
<symbol id="twitter" viewBox="0 0 32 32">
<path d="M32 6.078c-1.19 0.522-2.458 0.868-3.78 1.036 1.36-0.812 2.398-2.088 2.886-3.626-1.268 0.756-2.668 1.29-4.16 1.588-1.204-1.282-2.92-2.076-4.792-2.076-3.632 0-6.556 2.948-6.556 6.562 0 0.52 0.044 1.020 0.152 1.496-5.454-0.266-10.28-2.88-13.522-6.862-0.566 0.982-0.898 2.106-0.898 3.316 0 2.272 1.17 4.286 2.914 5.452-1.054-0.020-2.088-0.326-2.964-0.808 0 0.020 0 0.046 0 0.072 0 3.188 2.274 5.836 5.256 6.446-0.534 0.146-1.116 0.216-1.72 0.216-0.42 0-0.844-0.024-1.242-0.112 0.85 2.598 3.262 4.508 6.13 4.57-2.232 1.746-5.066 2.798-8.134 2.798-0.538 0-1.054-0.024-1.57-0.090 2.906 1.874 6.35 2.944 10.064 2.944 12.072 0 18.672-10 18.672-18.668 0-0.29-0.010-0.57-0.024-0.848 1.302-0.924 2.396-2.078 3.288-3.406z"></path>
</symbol>
<symbol id="facebook" viewBox="0 0 32 32">
<path d="M21.079 5.313h2.921v-5.088c-0.504-0.069-2.237-0.225-4.256-0.225-4.212 0-7.097 2.649-7.097 7.519v4.481h-4.648v5.688h4.648v14.312h5.699v-14.311h4.46l0.708-5.688h-5.169v-3.919c0.001-1.644 0.444-2.769 2.735-2.769z"></path>
</symbol>
<symbol id="linkedin" viewBox="0 0 32 32">
<path d="M31.992 32v-0.001h0.008v-11.736c0-5.741-1.236-10.164-7.948-10.164-3.227 0-5.392 1.771-6.276 3.449h-0.093v-2.913h-6.364v21.364h6.627v-10.579c0-2.785 0.528-5.479 3.977-5.479 3.399 0 3.449 3.179 3.449 5.657v10.401h6.62z"></path>
<path d="M0.528 10.636h6.635v21.364h-6.635v-21.364z"></path>
<path d="M3.843 0c-2.121 0-3.843 1.721-3.843 3.843s1.721 3.879 3.843 3.879c2.121 0 3.843-1.757 3.843-3.879-0.001-2.121-1.723-3.843-3.843-3.843v0z"></path>
</symbol>
<symbol id="facebook1" viewBox="0 0 32 32">
<path d="M19 6h5v-6h-5c-3.86 0-7 3.14-7 7v3h-4v6h4v16h6v-16h5l1-6h-6v-3c0-0.542 0.458-1 1-1z"></path>
</symbol>
</defs>
</svg>
