<!-- Generated by IcoMoon.io -->
<svg version="1.1" xmlns="http://www.w3.org/2000/svg" width="43" height="32" viewBox="0 0 43 32">
<title>brand</title>
<path d="M3.264 26.464c0.167 0.189 0.256 0.427 0.252 0.67 0.009 0.159-0.022 0.317-0.090 0.464s-0.17 0.277-0.3 0.383c-0.325 0.225-0.727 0.334-1.133 0.309h-1.992v-4.248h1.951c0.385-0.023 0.767 0.076 1.081 0.282 0.126 0.096 0.226 0.219 0.292 0.357s0.095 0.288 0.087 0.438c0.011 0.234-0.069 0.465-0.227 0.649-0.151 0.169-0.361 0.286-0.594 0.332 0.264 0.044 0.503 0.173 0.673 0.363zM0.927 25.823h0.834c0.19 0.013 0.378-0.037 0.53-0.141 0.063-0.052 0.111-0.116 0.142-0.188s0.044-0.149 0.037-0.227c0.006-0.077-0.007-0.154-0.037-0.226s-0.078-0.136-0.139-0.189c-0.157-0.107-0.351-0.158-0.546-0.143h-0.82v1.114zM2.373 27.451c0.067-0.053 0.12-0.12 0.154-0.195s0.049-0.156 0.043-0.237c0.005-0.082-0.010-0.164-0.045-0.239s-0.088-0.143-0.156-0.196c-0.163-0.111-0.364-0.165-0.567-0.154h-0.875v1.168h0.886c0.199 0.011 0.397-0.041 0.56-0.147z"></path>
<path d="M7.252 28.29l-1.086-1.66h-0.408v1.66h-0.934v-4.248h1.768c0.446-0.028 0.886 0.101 1.231 0.361 0.247 0.231 0.396 0.534 0.42 0.857s-0.078 0.642-0.289 0.901c-0.218 0.229-0.516 0.381-0.843 0.432l1.156 1.697h-1.015zM5.759 26.051h0.764c0.53 0 0.795-0.214 0.795-0.643 0.005-0.088-0.009-0.175-0.043-0.257s-0.085-0.157-0.152-0.22c-0.168-0.128-0.383-0.19-0.601-0.172h-0.773l0.009 1.293z"></path>
<path d="M12.356 27.435h-1.861l-0.329 0.855h-0.979l1.709-4.2h1.058l1.702 4.2h-0.979l-0.322-0.855zM12.107 26.791l-0.68-1.793-0.68 1.793h1.36z"></path>
<path d="M18.745 28.29h-0.927l-2.078-2.889v2.889h-0.925v-4.248h0.925l2.078 2.905v-2.905h0.927v4.248z"></path>
<path d="M24.034 27.273c-0.192 0.321-0.484 0.582-0.839 0.749-0.403 0.187-0.851 0.279-1.303 0.268h-1.65v-4.248h1.65c0.451-0.011 0.898 0.079 1.303 0.261 0.355 0.164 0.647 0.422 0.839 0.741 0.191 0.346 0.29 0.727 0.29 1.114s-0.099 0.769-0.29 1.114zM22.974 27.171c0.265-0.282 0.41-0.642 0.41-1.014s-0.145-0.732-0.41-1.014c-0.32-0.256-0.737-0.385-1.16-0.361h-0.644v2.75h0.644c0.424 0.024 0.841-0.105 1.16-0.361z"></path>
<path d="M12.936 0.415c0 0 11.964 4.136 11.71 10.12v10.122c0 0-11.955-4.138-11.706-10.122l-0.005-10.12z"></path>
<path d="M35.305 18.288c2.26-1.424 4.873-2.306 7.601-2.565v-3.169c-3.144 1.109-5.81 3.121-7.601 5.733z"></path>
<path d="M33.947 19.242c1.849-3.41 5.056-6.041 8.959-7.352v-9.13c0 0-17.038 5.891-16.678 14.414v14.412c0 0 0.759-0.264 1.954-0.757 0-0.461 0-0.925 0.054-1.392 0.353-3.957 2.407-7.623 5.711-10.193z"></path>
<path d="M32.327 24.596c0.090-1 0.289-1.988 0.596-2.951-2.057 2.219-3.303 4.974-3.563 7.875-0.025 0.274-0.039 0.548-0.045 0.83 0.968-0.425 2.094-0.957 3.277-1.581-0.302-1.373-0.391-2.778-0.265-4.173z"></path>
<path d="M33.005 24.648c-0.114 1.263-0.043 2.533 0.211 3.779 4.655-2.55 9.886-6.491 9.684-11.253v-0.415c-3.326 0.341-6.438 1.672-8.857 3.789-0.566 1.312-0.916 2.694-1.038 4.1z"></path>
</svg>
