<!-- Generated by IcoMoon.io -->
<svg version="1.1" xmlns="http://www.w3.org/2000/svg" width="32" height="32" viewBox="0 0 32 32">
<title>foster-peters</title>
<path d="M6.122 12.317h-0.002c-1.117 0-2.022 0.805-2.022 1.797v0.001c0 0.993 0.905 1.797 2.022 1.797h0.002c1.117 0 2.022-0.805 2.022-1.797v-0.001c0-0.993-0.905-1.797-2.022-1.797z"></path>
<path d="M21.049 11.742c-0.003-1.378-0.62-2.7-1.718-3.674s-2.583-1.524-4.134-1.527v0c-1.552 0.003-3.039 0.552-4.136 1.526s-1.715 2.297-1.719 3.676v7.602c0 0 11.705-1.158 11.707-7.601v-0.001z"></path>
<path d="M0 21.839c0.003 0.96 0.433 1.878 1.196 2.557s1.797 1.061 2.876 1.064c1.079-0.003 2.113-0.385 2.876-1.063s1.193-1.597 1.196-2.556v-5.29c0 0-8.145 0.807-8.145 5.289zM4.072 22.787c-0.211 0-0.417-0.056-0.593-0.16s-0.312-0.252-0.393-0.425-0.102-0.364-0.061-0.548c0.041-0.184 0.142-0.353 0.292-0.485s0.339-0.223 0.546-0.26c0.207-0.037 0.422-0.018 0.616 0.054s0.361 0.193 0.478 0.349c0.117 0.155 0.18 0.339 0.18 0.527 0.001 0.125-0.027 0.248-0.080 0.364s-0.132 0.221-0.231 0.309-0.217 0.159-0.346 0.206-0.269 0.073-0.409 0.073v-0.003z"></path>
<path d="M12.303 22.265h-0.786v0.812h-0.41v-1.987h1.293v0.332h-0.884v0.513h0.786v0.331zM14.271 22.129c0 0.196-0.035 0.367-0.103 0.514s-0.168 0.261-0.297 0.341c-0.128 0.080-0.276 0.12-0.442 0.12-0.165 0-0.312-0.040-0.44-0.119s-0.229-0.192-0.3-0.339c-0.071-0.147-0.107-0.316-0.108-0.508v-0.098c0-0.196 0.035-0.367 0.105-0.516 0.071-0.149 0.171-0.263 0.299-0.342 0.129-0.080 0.276-0.12 0.442-0.12s0.313 0.040 0.44 0.12c0.129 0.079 0.229 0.193 0.299 0.342 0.071 0.148 0.106 0.32 0.106 0.514v0.089zM13.856 22.039c0-0.209-0.037-0.367-0.112-0.475s-0.181-0.163-0.319-0.163c-0.138 0-0.243 0.054-0.318 0.161-0.075 0.106-0.112 0.263-0.113 0.469v0.097c0 0.203 0.037 0.36 0.112 0.472s0.182 0.168 0.322 0.168c0.138 0 0.243-0.054 0.316-0.161s0.111-0.265 0.112-0.472v-0.097zM15.599 22.556c0-0.077-0.027-0.137-0.082-0.177-0.055-0.042-0.153-0.086-0.295-0.131-0.142-0.047-0.254-0.092-0.337-0.137-0.225-0.122-0.339-0.286-0.339-0.492 0-0.107 0.030-0.203 0.090-0.287s0.148-0.151 0.261-0.198c0.114-0.047 0.241-0.071 0.382-0.071s0.268 0.026 0.379 0.077c0.111 0.051 0.197 0.124 0.258 0.217s0.093 0.2 0.093 0.319h-0.41c0-0.091-0.029-0.161-0.086-0.211-0.057-0.051-0.138-0.076-0.242-0.076-0.1 0-0.178 0.021-0.234 0.064s-0.083 0.098-0.083 0.166c0 0.064 0.033 0.119 0.097 0.163 0.066 0.043 0.161 0.085 0.288 0.123 0.233 0.070 0.403 0.157 0.509 0.261s0.16 0.233 0.16 0.387c0 0.172-0.065 0.307-0.195 0.405s-0.305 0.146-0.526 0.146c-0.153 0-0.292-0.028-0.418-0.083s-0.222-0.133-0.288-0.231c-0.066-0.098-0.098-0.21-0.098-0.339h0.411c0 0.219 0.131 0.329 0.393 0.329 0.098 0 0.173-0.020 0.228-0.059s0.082-0.095 0.082-0.166zM17.783 21.422h-0.608v1.655h-0.41v-1.655h-0.6v-0.332h1.618v0.332zM19.213 22.216h-0.786v0.532h0.922v0.329h-1.332v-1.987h1.329v0.332h-0.919v0.474h0.786v0.321zM20.325 22.35h-0.326v0.727h-0.41v-1.987h0.738c0.235 0 0.416 0.053 0.543 0.157s0.191 0.252 0.191 0.443c0 0.135-0.030 0.249-0.089 0.34s-0.147 0.162-0.266 0.216l0.43 0.812v0.019h-0.439l-0.372-0.727zM19.999 22.018h0.331c0.103 0 0.183-0.026 0.239-0.077s0.085-0.125 0.085-0.217c0-0.094-0.027-0.167-0.081-0.221-0.053-0.054-0.134-0.081-0.244-0.081h-0.329v0.597zM22.479 22.377v0.7h-0.41v-1.987h0.775c0.149 0 0.28 0.027 0.393 0.082s0.201 0.132 0.262 0.234c0.061 0.1 0.092 0.215 0.092 0.342 0 0.195-0.067 0.348-0.2 0.461-0.133 0.112-0.317 0.168-0.553 0.168h-0.359zM22.479 22.046h0.366c0.108 0 0.191-0.025 0.247-0.076 0.057-0.051 0.086-0.124 0.086-0.218 0-0.098-0.029-0.176-0.086-0.236s-0.137-0.091-0.237-0.093h-0.375v0.624zM25.069 22.216h-0.786v0.532h0.922v0.329h-1.332v-1.987h1.329v0.332h-0.919v0.474h0.786v0.321zM26.968 21.422h-0.608v1.655h-0.41v-1.655h-0.6v-0.332h1.618v0.332zM28.399 22.216h-0.786v0.532h0.922v0.329h-1.332v-1.987h1.329v0.332h-0.919v0.474h0.786v0.321zM29.51 22.35h-0.326v0.727h-0.41v-1.987h0.738c0.235 0 0.416 0.053 0.543 0.157s0.191 0.252 0.191 0.443c0 0.135-0.029 0.249-0.089 0.34s-0.147 0.162-0.266 0.216l0.43 0.812v0.019h-0.439l-0.372-0.727zM29.184 22.018h0.331c0.103 0 0.183-0.026 0.239-0.077s0.085-0.125 0.085-0.217c0-0.094-0.027-0.167-0.081-0.221-0.053-0.054-0.134-0.081-0.244-0.081h-0.329v0.597zM31.59 22.556c0-0.077-0.027-0.137-0.082-0.177-0.055-0.042-0.153-0.086-0.295-0.131-0.142-0.047-0.254-0.092-0.337-0.137-0.225-0.122-0.339-0.286-0.339-0.492 0-0.107 0.030-0.203 0.090-0.287s0.148-0.151 0.261-0.198c0.114-0.047 0.241-0.071 0.382-0.071s0.268 0.026 0.379 0.077c0.111 0.051 0.197 0.124 0.258 0.217s0.093 0.2 0.093 0.319h-0.41c0-0.091-0.029-0.161-0.086-0.211-0.057-0.051-0.138-0.076-0.242-0.076-0.1 0-0.178 0.021-0.234 0.064s-0.083 0.098-0.083 0.166c0 0.064 0.032 0.119 0.097 0.163 0.066 0.043 0.161 0.085 0.288 0.123 0.233 0.070 0.403 0.157 0.509 0.261s0.16 0.233 0.16 0.387c0 0.172-0.065 0.307-0.195 0.405s-0.305 0.146-0.526 0.146c-0.153 0-0.292-0.028-0.418-0.083s-0.222-0.133-0.288-0.231c-0.066-0.098-0.098-0.21-0.098-0.339h0.411c0 0.219 0.131 0.329 0.393 0.329 0.098 0 0.173-0.020 0.228-0.059s0.082-0.095 0.082-0.166z"></path>
</svg>
